<svg width="14" height="15" viewBox="0 0 14 15" fill="none" xmlns="http://www.w3.org/2000/svg">
<path d="M13.125 14.6055H0.875V0.605469H13.125V14.6055Z" stroke="#E5E7EB"/>
<g clip-path="url(#clip0_10_47)">
<path d="M12.868 4.72341C13.2098 4.38162 13.2098 3.82654 12.868 3.48474L10.243 0.859741C9.90117 0.517944 9.34609 0.517944 9.0043 0.859741C8.6625 1.20154 8.6625 1.75662 9.0043 2.09841L10.1363 3.23044H1.75C1.26602 3.23044 0.875 3.62146 0.875 4.10544C0.875 4.58943 1.26602 4.98044 1.75 4.98044H10.1363L9.0043 6.11248C8.6625 6.45427 8.6625 7.00935 9.0043 7.35115C9.34609 7.69294 9.90117 7.69294 10.243 7.35115L12.868 4.72615V4.72341ZM3.7543 14.3484C4.09609 14.6902 4.65117 14.6902 4.99297 14.3484C5.33477 14.0066 5.33477 13.4515 4.99297 13.1097L3.86367 11.9804H12.25C12.734 11.9804 13.125 11.5894 13.125 11.1054C13.125 10.6215 12.734 10.2304 12.25 10.2304H3.86367L4.9957 9.09841C5.3375 8.75662 5.3375 8.20154 4.9957 7.85974C4.65391 7.51794 4.09883 7.51794 3.75703 7.85974L1.13203 10.4847C0.790234 10.8265 0.790234 11.3816 1.13203 11.7234L3.75703 14.3484H3.7543Z" fill="#04BCA6"/>
</g>
<defs>
<clipPath id="clip0_10_47">
<path d="M0.875 0.605469H13.125V14.6055H0.875V0.605469Z" fill="white"/>
</clipPath>
</defs>
</svg>
