<svg width="46" height="45" viewBox="0 0 46 45" fill="none" xmlns="http://www.w3.org/2000/svg">
<path d="M41.2135 23.8697C40.7608 23.8046 40.2865 23.8046 39.7907 23.9023C38.5512 24.1304 37.4409 24.8363 36.7295 25.8898C36.6433 26.0309 36.5571 26.1721 36.4816 26.3133C36.1152 26.9758 35.9104 27.736 35.8996 28.5397C35.8888 28.8981 35.9104 29.2673 35.975 29.6257C36.0936 30.2773 36.32 30.9724 36.708 31.5263C36.7619 31.6023 36.7834 31.7 36.7511 31.7978C36.2876 33.4485 35.8672 35.0884 35.3714 36.7175C35.1451 37.4669 34.078 37.4234 33.9055 36.6632C33.5283 35.0559 33.151 33.4485 32.7306 31.8629C32.2348 30.0384 31.642 28.2356 31.1569 26.4111C30.6396 24.4779 30.2192 22.5122 29.691 20.5791C29.1629 18.6676 28.5485 16.7779 28.0311 14.8557C27.1904 11.7388 26.479 8.60013 25.5843 5.49408C25.2718 4.4189 25.0131 3.28943 24.6035 2.24684C24.3556 1.60608 24.0861 1.10651 23.4933 0.737255C22.9112 0.368005 22.189 0.161659 21.51 0.0964966C21.4776 0.0964966 21.4453 0.0964966 21.413 0.0964966C20.2165 0.313703 19.0848 0.748116 18.3518 1.80157C17.2632 3.36545 15.032 14.2692 14.3745 17.0277C13.8355 19.3193 13.1565 21.5673 12.596 23.848C12.3049 25.0209 12.057 26.2264 11.7876 27.4102C11.5828 28.3116 10.451 28.594 9.84739 27.8989C7.96111 25.7051 6.06406 23.2724 2.97056 23.3159C2.39929 23.3267 1.7849 23.4788 1.36453 23.9132C0.998052 24.2933 0.739363 24.934 0.750142 25.4662C0.76092 26.0201 1.05195 26.4654 1.43998 26.8346C2.41007 27.7469 3.76819 28.127 4.77061 28.9958C6.72156 30.6683 8.46771 34.8278 11.4211 34.7192C12.4235 34.6758 13.5768 34.1327 14.2451 33.3834C14.7409 32.8295 15.0643 31.9933 15.3122 31.2873C16.7889 26.9649 17.6727 22.4036 18.7937 17.9726C19.4728 15.2792 20.3351 12.575 20.9171 9.84906C21.0249 9.36035 21.704 9.31691 21.8441 9.80562C22.3723 11.5759 22.922 13.3461 23.407 15.1272C24.4418 18.9174 25.358 22.7185 26.4574 26.4979C27.0502 28.594 27.4814 30.7117 28.0311 32.8186C28.4946 34.5997 29.0766 36.3482 29.5725 38.1293C29.9821 39.5738 30.2408 41.2354 30.9414 42.5603C31.2863 43.212 31.8468 43.7333 32.4827 44.0808C33.4959 44.6347 34.6924 44.765 35.8026 44.4392C37.0206 44.0808 37.9799 42.9187 38.5727 41.8436C38.9823 41.0833 40.9333 34.2739 40.7931 33.6114C40.7931 33.6006 40.7931 33.5789 40.7823 33.568C40.7716 33.5354 40.7716 33.5354 40.7608 33.5028C40.944 33.4703 41.1165 33.4377 41.2997 33.3942C43.6172 33.0793 45.4064 31.081 45.4064 28.6591C45.3849 26.1721 43.5633 24.163 41.2135 23.8697Z" fill="white"/>
</svg>
