<svg width="16" height="15" viewBox="0 0 16 15" fill="none" xmlns="http://www.w3.org/2000/svg">
<g clip-path="url(#clip0_10_39)">
<path d="M15.0984 3.44375L13.5316 0.963672C13.3922 0.742188 13.1434 0.605469 12.8781 0.605469H3.12188C2.85664 0.605469 2.60781 0.742188 2.46836 0.963672L0.898829 3.44375C0.0894537 4.72344 0.80586 6.50352 2.31797 6.70859C2.42734 6.72227 2.53945 6.73047 2.64883 6.73047C3.3625 6.73047 3.99688 6.41875 4.43164 5.9375C4.86641 6.41875 5.50078 6.73047 6.21445 6.73047C6.92813 6.73047 7.5625 6.41875 7.99727 5.9375C8.43203 6.41875 9.06641 6.73047 9.78008 6.73047C10.4965 6.73047 11.1281 6.41875 11.5629 5.9375C12.0004 6.41875 12.632 6.73047 13.3457 6.73047C13.4578 6.73047 13.5672 6.72227 13.6766 6.70859C15.1941 6.50625 15.9133 4.72617 15.1012 3.44375H15.0984ZM13.7887 7.57539H13.7859C13.641 7.59453 13.4934 7.60547 13.343 7.60547C13.0039 7.60547 12.6785 7.55352 12.375 7.46055V11.1055H3.625V7.45781C3.31875 7.55352 2.99063 7.60547 2.65156 7.60547C2.50117 7.60547 2.35078 7.59453 2.20586 7.57539H2.20313C2.09102 7.55898 1.98164 7.53984 1.875 7.5125V11.1055V12.8555C1.875 13.8207 2.65977 14.6055 3.625 14.6055H12.375C13.3402 14.6055 14.125 13.8207 14.125 12.8555V11.1055V7.5125C14.0156 7.53984 13.9063 7.56172 13.7887 7.57539Z" fill="#04BCA6"/>
</g>
<defs>
<clipPath id="clip0_10_39">
<path d="M0.125 0.605469H15.875V14.6055H0.125V0.605469Z" fill="white"/>
</clipPath>
</defs>
</svg>
