<svg width="16" height="17" viewBox="0 0 16 17" fill="none" xmlns="http://www.w3.org/2000/svg">
<g clip-path="url(#clip0_10_66)">
<path d="M5.95312 2.75547L7.04063 4.60547H7H4.75C4.05937 4.60547 3.5 4.04609 3.5 3.35547C3.5 2.66484 4.05937 2.10547 4.75 2.10547H4.81875C5.28437 2.10547 5.71875 2.35234 5.95312 2.75547ZM2 3.35547C2 3.80547 2.10938 4.23047 2.3 4.60547H1C0.446875 4.60547 0 5.05234 0 5.60547V7.60547C0 8.15859 0.446875 8.60547 1 8.60547H15C15.5531 8.60547 16 8.15859 16 7.60547V5.60547C16 5.05234 15.5531 4.60547 15 4.60547H13.7C13.8906 4.23047 14 3.80547 14 3.35547C14 1.83672 12.7688 0.605469 11.25 0.605469H11.1812C10.1844 0.605469 9.25938 1.13359 8.75313 1.99297L8 3.27734L7.24687 1.99609C6.74062 1.13359 5.81562 0.605469 4.81875 0.605469H4.75C3.23125 0.605469 2 1.83672 2 3.35547ZM12.5 3.35547C12.5 4.04609 11.9406 4.60547 11.25 4.60547H9H8.95938L10.0469 2.75547C10.2844 2.35234 10.7156 2.10547 11.1812 2.10547H11.25C11.9406 2.10547 12.5 2.66484 12.5 3.35547ZM1 9.60547V15.1055C1 15.9336 1.67188 16.6055 2.5 16.6055H7V9.60547H1ZM9 16.6055H13.5C14.3281 16.6055 15 15.9336 15 15.1055V9.60547H9V16.6055Z" fill="#FF6B6B"/>
</g>
<defs>
<clipPath id="clip0_10_66">
<path d="M0 0.605469H16V16.6055H0V0.605469Z" fill="white"/>
</clipPath>
</defs>
</svg>
