<svg width="18" height="15" viewBox="0 0 18 15" fill="none" xmlns="http://www.w3.org/2000/svg">
<g clip-path="url(#clip0_10_57)">
<path d="M8.68554 4.30508C8.87968 4.13281 8.95624 3.86211 8.85507 3.62148C8.79218 3.47656 8.72382 3.33438 8.64725 3.19766L8.56249 3.05C8.48046 2.91328 8.39022 2.7793 8.29452 2.65078C8.13866 2.44297 7.86522 2.37461 7.61913 2.45664L6.84804 2.71094C6.55546 2.47031 6.21913 2.27344 5.85819 2.13945L5.69139 1.34648C5.63944 1.09219 5.44257 0.889844 5.18554 0.859766C5.00507 0.835156 4.82186 0.824219 4.63593 0.824219H4.61679C4.43085 0.824219 4.24764 0.835156 4.06718 0.857031C3.81014 0.887109 3.61327 1.09219 3.56132 1.34375L3.39452 2.13945C3.03085 2.27617 2.69725 2.47031 2.40468 2.71094L1.63085 2.45938C1.38475 2.37734 1.11132 2.4457 0.955457 2.65352C0.859754 2.78203 0.76952 2.91602 0.684754 3.05273L0.602723 3.19766C0.52616 3.33438 0.457801 3.47656 0.39491 3.62422C0.293738 3.86211 0.370301 4.13281 0.564442 4.30781L1.17147 4.84922C1.14139 5.03242 1.12499 5.22383 1.12499 5.41797C1.12499 5.61211 1.14139 5.80352 1.17147 5.98945L0.564442 6.53086C0.370301 6.70312 0.293738 6.97383 0.39491 7.21445C0.457801 7.35938 0.52616 7.50156 0.602723 7.64102L0.684754 7.7832C0.766785 7.92266 0.85702 8.05391 0.955457 8.18242C1.11132 8.39023 1.38475 8.45859 1.63085 8.37656L2.40194 8.12227C2.69452 8.36289 3.03085 8.55977 3.39179 8.69375L3.55858 9.48945C3.61054 9.74375 3.80741 9.94609 4.06444 9.97617C4.24764 9.99805 4.43358 10.009 4.62225 10.009C4.81093 10.009 4.99686 9.99805 5.18007 9.97617C5.4371 9.94609 5.63397 9.74102 5.68593 9.48945L5.85272 8.69375C6.21639 8.55703 6.54999 8.36289 6.84257 8.12227L7.61366 8.37656C7.85975 8.45859 8.13319 8.39023 8.28905 8.18242C8.38475 8.05391 8.47499 7.92266 8.55702 7.7832L8.64179 7.63555C8.71835 7.49883 8.78671 7.35664 8.8496 7.21172C8.95077 6.97383 8.87421 6.70312 8.68007 6.52813L8.07304 5.98672C8.10311 5.80078 8.11952 5.60938 8.11952 5.41523C8.11952 5.22109 8.10311 5.02969 8.07304 4.84375L8.68007 4.30234L8.68554 4.30508ZM3.31249 5.41797C3.31249 5.06987 3.45077 4.73603 3.69691 4.48989C3.94305 4.24375 4.27689 4.10547 4.62499 4.10547C4.97308 4.10547 5.30692 4.24375 5.55307 4.48989C5.79921 4.73603 5.93749 5.06987 5.93749 5.41797C5.93749 5.76607 5.79921 6.09991 5.55307 6.34605C5.30692 6.59219 4.97308 6.73047 4.62499 6.73047C4.27689 6.73047 3.94305 6.59219 3.69691 6.34605C3.45077 6.09991 3.31249 5.76607 3.31249 5.41797ZM14.0504 14.291C14.2226 14.4852 14.4933 14.5617 14.734 14.4605C14.8789 14.3977 15.0211 14.3293 15.1578 14.2527L15.3055 14.168C15.4422 14.0859 15.5762 13.9957 15.7047 13.9C15.9125 13.7441 15.9808 13.4707 15.8988 13.2246L15.6445 12.4535C15.8851 12.1609 16.082 11.8246 16.216 11.4637L17.0117 11.2969C17.266 11.2449 17.4683 11.048 17.4984 10.791C17.5203 10.6078 17.5312 10.4219 17.5312 10.2332C17.5312 10.0445 17.5203 9.85859 17.4984 9.67539C17.4683 9.41836 17.2633 9.22149 17.0117 9.16953L16.216 9C16.0793 8.63633 15.8851 8.30273 15.6445 8.01016L15.8988 7.23906C15.9808 6.99297 15.9125 6.71953 15.7047 6.56367C15.5762 6.46797 15.4422 6.37773 15.3055 6.29297L15.1605 6.21094C15.0238 6.13438 14.8816 6.06602 14.734 6.00312C14.4961 5.90195 14.2254 5.97852 14.0504 6.17266L13.509 6.77969C13.323 6.74961 13.1316 6.7332 12.9375 6.7332C12.7433 6.7332 12.5519 6.74961 12.366 6.77969L11.8246 6.17266C11.6523 5.97852 11.3816 5.90195 11.141 6.00312C10.9961 6.06602 10.8539 6.13438 10.7144 6.21094L10.5723 6.29297C10.4328 6.375 10.3016 6.46523 10.173 6.56367C9.96522 6.71953 9.89686 6.99297 9.9789 7.23906L10.2332 8.01016C9.99257 8.30273 9.79569 8.63906 9.66171 9L8.866 9.16406C8.61171 9.21602 8.40936 9.41289 8.37929 9.66992C8.35741 9.85312 8.34647 10.0391 8.34647 10.2277C8.34647 10.4164 8.35741 10.6023 8.37929 10.7855C8.40936 11.0426 8.61444 11.2395 8.866 11.2914L9.66171 11.4582C9.79843 11.8219 9.99257 12.1555 10.2332 12.448L9.9789 13.2191C9.89686 13.4652 9.96522 13.7387 10.173 13.8945C10.3016 13.9902 10.4328 14.0805 10.5723 14.1625L10.7199 14.2473C10.8566 14.3238 10.9988 14.3922 11.1437 14.4551C11.3816 14.5562 11.6523 14.4797 11.8273 14.2855L12.3687 13.6785C12.5547 13.7086 12.7461 13.725 12.9402 13.725C13.1344 13.725 13.3258 13.7086 13.5117 13.6785L14.0531 14.2855L14.0504 14.291ZM12.9375 8.91797C13.1098 8.91797 13.2805 8.95192 13.4398 9.01788C13.599 9.08384 13.7437 9.18051 13.8656 9.30239C13.9874 9.42427 14.0841 9.56896 14.1501 9.7282C14.216 9.88744 14.25 10.0581 14.25 10.2305C14.25 10.4028 14.216 10.5735 14.1501 10.7327C14.0841 10.892 13.9874 11.0367 13.8656 11.1585C13.7437 11.2804 13.599 11.3771 13.4398 11.4431C13.2805 11.509 13.1098 11.543 12.9375 11.543C12.7651 11.543 12.5945 11.509 12.4352 11.4431C12.276 11.3771 12.1313 11.2804 12.0094 11.1585C11.8875 11.0367 11.7909 10.892 11.7249 10.7327C11.6589 10.5735 11.625 10.4028 11.625 10.2305C11.625 10.0581 11.6589 9.88744 11.7249 9.7282C11.7909 9.56896 11.8875 9.42427 12.0094 9.30239C12.1313 9.18051 12.276 9.08384 12.4352 9.01788C12.5945 8.95192 12.7651 8.91797 12.9375 8.91797Z" fill="#04BCA6"/>
</g>
<defs>
<clipPath id="clip0_10_57">
<path d="M0.25 0.605469H17.75V14.6055H0.25V0.605469Z" fill="white"/>
</clipPath>
</defs>
</svg>
